<svg baseProfile="full" height="6950" version="1.1" width="2442" xmlns="http://www.w3.org/2000/svg" xmlns:ev="http://www.w3.org/2001/xml-events" xmlns:xlink="http://www.w3.org/1999/xlink"><defs><marker id="id23" markerHeight="15" markerWidth="15" orient="auto" refX="9.5" refY="5"><path d="M 0 0 L 10 5 L 0 10 L 2.5 5 Z" /></marker><marker id="id24" markerHeight="15" markerWidth="15" orient="-90" refX="9.5" refY="5"><path d="M 0 0 L 10 5 L 0 10 L 2.5 5 Z" /></marker><marker id="id25" markerHeight="15" markerWidth="15" orient="-90" refX="9.5" refY="5"><path d="M 0 0 L 10 5 L 0 10 L 2.5 5 Z" /></marker><marker id="id26" markerHeight="15" markerWidth="15" orient="auto" refX="9.5" refY="5"><path d="M 0 0 L 10 5 L 0 10 L 2.5 5 Z" /></marker><marker id="id27" markerHeight="15" markerWidth="15" orient="auto" refX="9.5" refY="5"><path d="M 0 0 L 10 5 L 0 10 L 2.5 5 Z" /></marker><marker id="id28" markerHeight="15" markerWidth="15" orient="auto" refX="9.5" refY="5"><path d="M 0 0 L 10 5 L 0 10 L 2.5 5 Z" /></marker><marker id="id29" markerHeight="15" markerWidth="15" orient="-90" refX="9.5" refY="5"><path d="M 0 0 L 10 5 L 0 10 L 2.5 5 Z" /></marker><marker id="id30" markerHeight="15" markerWidth="15" orient="-90" refX="9.5" refY="5"><path d="M 0 0 L 10 5 L 0 10 L 2.5 5 Z" /></marker><marker id="id31" markerHeight="15" markerWidth="15" orient="auto" refX="9.5" refY="5"><path d="M 0 0 L 10 5 L 0 10 L 2.5 5 Z" /></marker><marker id="id32" markerHeight="15" markerWidth="15" orient="-90" refX="9.5" refY="5"><path d="M 0 0 L 10 5 L 0 10 L 2.5 5 Z" /></marker><marker id="id33" markerHeight="15" markerWidth="15" orient="-90" refX="9.5" refY="5"><path d="M 0 0 L 10 5 L 0 10 L 2.5 5 Z" /></marker><marker id="id34" markerHeight="15" markerWidth="15" orient="-90" refX="9.5" refY="5"><path d="M 0 0 L 10 5 L 0 10 L 2.5 5 Z" /></marker><marker id="id35" markerHeight="15" markerWidth="15" orient="-90" refX="9.5" refY="5"><path d="M 0 0 L 10 5 L 0 10 L 2.5 5 Z" /></marker><marker id="id36" markerHeight="15" markerWidth="15" orient="-90" refX="9.5" refY="5"><path d="M 0 0 L 10 5 L 0 10 L 2.5 5 Z" /></marker><marker id="id37" markerHeight="15" markerWidth="15" orient="-90" refX="9.5" refY="5"><path d="M 0 0 L 10 5 L 0 10 L 2.5 5 Z" /></marker><marker id="id38" markerHeight="15" markerWidth="15" orient="-90" refX="9.5" refY="5"><path d="M 0 0 L 10 5 L 0 10 L 2.5 5 Z" /></marker><marker id="id39" markerHeight="15" markerWidth="15" orient="auto" refX="9.5" refY="5"><path d="M 0 0 L 10 5 L 0 10 L 2.5 5 Z" /></marker><marker id="id40" markerHeight="15" markerWidth="15" orient="-90" refX="9.5" refY="5"><path d="M 0 0 L 10 5 L 0 10 L 2.5 5 Z" /></marker><marker id="id41" markerHeight="15" markerWidth="15" orient="auto" refX="9.5" refY="5"><path d="M 0 0 L 10 5 L 0 10 L 2.5 5 Z" /></marker><marker id="id42" markerHeight="15" markerWidth="15" orient="-90" refX="9.5" refY="5"><path d="M 0 0 L 10 5 L 0 10 L 2.5 5 Z" /></marker></defs><text fill="black" font-size="20" x="100" y="150.0">Player</text><rect fill="none" height="50" stroke="black" width="150" x="100" y="175.0" /><text fill="black" font-size="20" x="149.5" y="200.0">p_id</text><line stroke="black" stroke-width="2" x1="149.5" x2="200.5" y1="213.5" y2="213.5" /><rect fill="none" height="50" stroke="black" width="150" x="250" y="175.0" /><text fill="black" font-size="20" x="305.5" y="200.0">T_id</text><rect fill="none" height="50" stroke="black" width="150" x="400" y="175.0" /><text fill="black" font-size="20" x="439.0" y="200.0">p_name</text><rect fill="none" height="50" stroke="black" width="150" x="550" y="175.0" /><text fill="black" font-size="20" x="586.0" y="200.0">p_phone</text><rect fill="none" height="50" stroke="black" width="150" x="700" y="175.0" /><text fill="black" font-size="20" x="748.5" y="200.0">p_ssn</text><rect fill="none" height="50" stroke="black" width="150" x="850" y="175.0" /><text fill="black" font-size="20" x="882.5" y="200.0">p_gender</text><rect fill="none" height="50" stroke="black" width="150" x="1000" y="175.0" /><text fill="black" font-size="20" x="1037.0" y="200.0">p_salary</text><rect fill="none" height="50" stroke="black" width="150" x="1150" y="175.0" /><text fill="black" font-size="20" x="1181.0" y="200.0">p_ranking</text><rect fill="none" height="50" stroke="black" width="150" x="1300" y="175.0" /><text fill="black" font-size="20" x="1349.0" y="200.0">p_city</text><rect fill="none" height="50" stroke="black" width="150" x="1450" y="175.0" /><text fill="black" font-size="20" x="1488.5" y="200.0">p_street</text><rect fill="none" height="50" stroke="black" width="173" x="1600" y="175.0" /><text fill="black" font-size="20" x="1620.0" y="200.0">p_maritalSatus</text><rect fill="none" height="50" stroke="black" width="150" x="1773" y="175.0" /><text fill="black" font-size="20" x="1820.0" y="200.0">p_age</text><rect fill="none" height="50" stroke="black" width="150" x="1923" y="175.0" /><text fill="black" font-size="20" x="1944.0" y="200.0">p_password</text><text fill="black" font-size="20" x="100" y="325.0">Teams</text><rect fill="none" height="50" stroke="black" width="150" x="100" y="350.0" /><text fill="black" font-size="20" x="155.5" y="375.0">T_id</text><line stroke="black" stroke-width="2" x1="155.5" x2="194.5" y1="388.5" y2="388.5" /><rect fill="none" height="50" stroke="black" width="150" x="250" y="350.0" /><text fill="black" font-size="20" x="282.0" y="375.0">Sp_name</text><rect fill="none" height="50" stroke="black" width="150" x="400" y="350.0" /><text fill="black" font-size="20" x="450.0" y="375.0">Ex_id</text><rect fill="none" height="50" stroke="black" width="150" x="550" y="350.0" /><text fill="black" font-size="20" x="601.0" y="375.0">Te_id</text><rect fill="none" height="50" stroke="black" width="150" x="700" y="350.0" /><text fill="black" font-size="20" x="735.5" y="375.0">T_leader</text><rect fill="none" height="50" stroke="black" width="150" x="850" y="350.0" /><text fill="black" font-size="20" x="888.5" y="375.0">T_name</text><text fill="black" font-size="20" x="100" y="500.0">Sponsers</text><rect fill="none" height="50" stroke="black" width="150" x="100" y="525.0" /><text fill="black" font-size="20" x="149.5" y="550.0">Sp_id</text><line stroke="black" stroke-width="2" x1="149.5" x2="200.5" y1="563.5" y2="563.5" /><rect fill="none" height="50" stroke="black" width="150" x="250" y="525.0" /><text fill="black" font-size="20" x="305.0" y="550.0">E_id</text><rect fill="none" height="50" stroke="black" width="150" x="400" y="525.0" /><text fill="black" font-size="20" x="435.0" y="550.0">Sp name</text><rect fill="none" height="50" stroke="black" width="150" x="550" y="525.0" /><text fill="black" font-size="20" x="591.0" y="550.0">Sp time</text><rect fill="none" height="50" stroke="black" width="150" x="700" y="525.0" /><text fill="black" font-size="20" x="726.0" y="550.0">Sp website</text><rect fill="none" height="50" stroke="black" width="150" x="850" y="525.0" /><text fill="black" font-size="20" x="883.5" y="550.0">Sp salary</text><text fill="black" font-size="20" x="100" y="675.0">SponseredBy</text><rect fill="none" height="50" stroke="black" width="150" x="100" y="700.0" /><text fill="black" font-size="20" x="155.5" y="725.0">T_id</text><line stroke="black" stroke-width="2" x1="155.5" x2="194.5" y1="738.5" y2="738.5" /><rect fill="none" height="50" stroke="black" width="150" x="250" y="700.0" /><text fill="black" font-size="20" x="299.5" y="725.0">Sp_id</text><line stroke="black" stroke-width="2" x1="299.5" x2="350.5" y1="738.5" y2="738.5" /><text fill="black" font-size="20" x="100" y="850.0">Expenses</text><rect fill="none" height="50" stroke="black" width="150" x="100" y="875.0" /><text fill="black" font-size="20" x="150.0" y="900.0">Ex_id</text><line stroke="black" stroke-width="2" x1="150.0" x2="200.0" y1="913.5" y2="913.5" /><rect fill="none" height="50" stroke="black" width="150" x="250" y="875.0" /><text fill="black" font-size="20" x="289.0" y="900.0">Ex_type</text><rect fill="none" height="50" stroke="black" width="150" x="400" y="875.0" /><text fill="black" font-size="20" x="438.5" y="900.0">Ex_date</text><rect fill="none" height="50" stroke="black" width="150" x="550" y="875.0" /><text fill="black" font-size="20" x="574.0" y="900.0">Ex_amount</text><text fill="black" font-size="20" x="100" y="1025.0">Fund</text><rect fill="none" height="50" stroke="black" width="150" x="100" y="1050.0" /><text fill="black" font-size="20" x="150.0" y="1075.0">Ex_id</text><line stroke="black" stroke-width="2" x1="150.0" x2="200.0" y1="1088.5" y2="1088.5" /><rect fill="none" height="50" stroke="black" width="150" x="250" y="1050.0" /><text fill="black" font-size="20" x="299.5" y="1075.0">Sp_id</text><line stroke="black" stroke-width="2" x1="299.5" x2="350.5" y1="1088.5" y2="1088.5" /><text fill="black" font-size="20" x="100" y="1200.0">Employees</text><rect fill="none" height="50" stroke="black" width="150" x="100" y="1225.0" /><text fill="black" font-size="20" x="155.0" y="1250.0">E_id</text><line stroke="black" stroke-width="2" x1="155.0" x2="195.0" y1="1263.5" y2="1263.5" /><rect fill="none" height="50" stroke="black" width="150" x="250" y="1225.0" /><text fill="black" font-size="20" x="288.0" y="1250.0">E_direct</text><rect fill="none" height="50" stroke="black" width="150" x="400" y="1225.0" /><text fill="black" font-size="20" x="435.0" y="1250.0">E_phone</text><rect fill="none" height="50" stroke="black" width="150" x="550" y="1225.0" /><text fill="black" font-size="20" x="597.0" y="1250.0">E_ssn</text><rect fill="none" height="50" stroke="black" width="150" x="700" y="1225.0" /><text fill="black" font-size="20" x="737.5" y="1250.0">E_name</text><rect fill="none" height="50" stroke="black" width="150" x="850" y="1225.0" /><text fill="black" font-size="20" x="896.0" y="1250.0">E_age</text><rect fill="none" height="50" stroke="black" width="150" x="1000" y="1225.0" /><text fill="black" font-size="20" x="1039.0" y="1250.0">E_email</text><rect fill="none" height="50" stroke="black" width="192" x="1150" y="1225.0" /><text fill="black" font-size="20" x="1170.0" y="1250.0">E_maritalStatues</text><rect fill="none" height="50" stroke="black" width="150" x="1342" y="1225.0" /><text fill="black" font-size="20" x="1378.0" y="1250.0">E_salary</text><rect fill="none" height="50" stroke="black" width="150" x="1492" y="1225.0" /><text fill="black" font-size="20" x="1536.0" y="1250.0">E_type</text><rect fill="none" height="50" stroke="black" width="150" x="1642" y="1225.0" /><text fill="black" font-size="20" x="1679.5" y="1250.0">E_street</text><rect fill="none" height="50" stroke="black" width="150" x="1792" y="1225.0" /><text fill="black" font-size="20" x="1840.0" y="1250.0">E_city</text><rect fill="none" height="50" stroke="black" width="150" x="1942" y="1225.0" /><text fill="black" font-size="20" x="1962.0" y="1250.0">E_password</text><text fill="black" font-size="20" x="100" y="1375.0">Services</text><rect fill="none" height="50" stroke="black" width="150" x="100" y="1400.0" /><text fill="black" font-size="20" x="149.5" y="1425.0">Se_id</text><line stroke="black" stroke-width="2" x1="149.5" x2="200.5" y1="1438.5" y2="1438.5" /><rect fill="none" height="50" stroke="black" width="150" x="250" y="1400.0" /><text fill="black" font-size="20" x="305.0" y="1425.0">E_id</text><rect fill="none" height="50" stroke="black" width="150" x="400" y="1400.0" /><text fill="black" font-size="20" x="438.5" y="1425.0">Se_type</text><rect fill="none" height="50" stroke="black" width="150" x="550" y="1400.0" /><text fill="black" font-size="20" x="582.0" y="1425.0">Se_name</text><rect fill="none" height="50" stroke="black" width="158" x="700" y="1400.0" /><text fill="black" font-size="20" x="720.0" y="1425.0">Se_startTime</text><rect fill="none" height="50" stroke="black" width="153" x="858" y="1400.0" /><text fill="black" font-size="20" x="878.0" y="1425.0">Se_endTime</text><text fill="black" font-size="20" x="100" y="1550.0">Members</text><rect fill="none" height="50" stroke="black" width="150" x="100" y="1575.0" /><text fill="black" font-size="20" x="153.5" y="1600.0">M_id</text><line stroke="black" stroke-width="2" x1="153.5" x2="196.5" y1="1613.5" y2="1613.5" /><rect fill="none" height="50" stroke="black" width="150" x="250" y="1575.0" /><text fill="black" font-size="20" x="300.0" y="1600.0">Fa_id</text><rect fill="none" height="50" stroke="black" width="150" x="400" y="1575.0" /><text fill="black" font-size="20" x="455.0" y="1600.0">E_id</text><rect fill="none" height="50" stroke="black" width="153" x="550" y="1575.0" /><text fill="black" font-size="20" x="570.0" y="1600.0">M_password</text><rect fill="none" height="50" stroke="black" width="150" x="703" y="1575.0" /><text fill="black" font-size="20" x="748.5" y="1600.0">M_ssn</text><rect fill="none" height="50" stroke="black" width="150" x="853" y="1575.0" /><text fill="black" font-size="20" x="897.5" y="1600.0">M_age</text><rect fill="none" height="50" stroke="black" width="150" x="1003" y="1575.0" /><text fill="black" font-size="20" x="1049.0" y="1600.0">M_city</text><rect fill="none" height="50" stroke="black" width="150" x="1153" y="1575.0" /><text fill="black" font-size="20" x="1189.0" y="1600.0">M_street</text><rect fill="none" height="50" stroke="black" width="150" x="1303" y="1575.0" /><text fill="black" font-size="20" x="1340.0" y="1600.0">M_email</text><rect fill="none" height="50" stroke="black" width="150" x="1453" y="1575.0" /><text fill="black" font-size="20" x="1486.5" y="1600.0">M_phone</text><rect fill="none" height="50" stroke="black" width="153" x="1603" y="1575.0" /><text fill="black" font-size="20" x="1623.0" y="1600.0">M_password</text><rect fill="none" height="50" stroke="black" width="200" x="1756" y="1575.0" /><text fill="black" font-size="20" x="1776.0" y="1600.0">M_priceSubscribe</text><text fill="black" font-size="20" x="100" y="1725.0">Event</text><rect fill="none" height="50" stroke="black" width="150" x="100" y="1750.0" /><text fill="black" font-size="20" x="150.0" y="1775.0">Ev_id</text><line stroke="black" stroke-width="2" x1="150.0" x2="200.0" y1="1788.5" y2="1788.5" /><rect fill="none" height="50" stroke="black" width="150" x="250" y="1750.0" /><text fill="black" font-size="20" x="305.0" y="1775.0">B_id</text><rect fill="none" height="50" stroke="black" width="150" x="400" y="1750.0" /><text fill="black" font-size="20" x="439.0" y="1775.0">Ev_type</text><rect fill="none" height="50" stroke="black" width="177" x="550" y="1750.0" /><text fill="black" font-size="20" x="570.0" y="1775.0">Ev_ticketsPrice</text><rect fill="none" height="50" stroke="black" width="157" x="727" y="1750.0" /><text fill="black" font-size="20" x="747.0" y="1775.0">Ev_startTime</text><rect fill="none" height="50" stroke="black" width="152" x="884" y="1750.0" /><text fill="black" font-size="20" x="904.0" y="1775.0">Ev_endTime</text><rect fill="none" height="50" stroke="black" width="150" x="1036" y="1750.0" /><text fill="black" font-size="20" x="1068.5" y="1775.0">Ev_name</text><text fill="black" font-size="20" x="100" y="1900.0">Organize</text><rect fill="none" height="50" stroke="black" width="150" x="100" y="1925.0" /><text fill="black" font-size="20" x="150.0" y="1950.0">Ev_id</text><line stroke="black" stroke-width="2" x1="150.0" x2="200.0" y1="1963.5" y2="1963.5" /><rect fill="none" height="50" stroke="black" width="150" x="250" y="1925.0" /><text fill="black" font-size="20" x="305.0" y="1950.0">E_id</text><line stroke="black" stroke-width="2" x1="305.0" x2="345.0" y1="1963.5" y2="1963.5" /><text fill="black" font-size="20" x="100" y="2075.0">Benifite</text><rect fill="none" height="50" stroke="black" width="150" x="100" y="2100.0" /><text fill="black" font-size="20" x="149.5" y="2125.0">Se_id</text><line stroke="black" stroke-width="2" x1="149.5" x2="200.5" y1="2138.5" y2="2138.5" /><rect fill="none" height="50" stroke="black" width="150" x="250" y="2100.0" /><text fill="black" font-size="20" x="303.5" y="2125.0">M_id</text><line stroke="black" stroke-width="2" x1="303.5" x2="346.5" y1="2138.5" y2="2138.5" /><text fill="black" font-size="20" x="100" y="2250.0">Competition</text><rect fill="none" height="50" stroke="black" width="150" x="100" y="2275.0" /><text fill="black" font-size="20" x="154.5" y="2300.0">C_id</text><line stroke="black" stroke-width="2" x1="154.5" x2="195.5" y1="2313.5" y2="2313.5" /><rect fill="none" height="50" stroke="black" width="150" x="250" y="2275.0" /><text fill="black" font-size="20" x="287.0" y="2300.0">C_name</text><rect fill="none" height="50" stroke="black" width="150" x="400" y="2275.0" /><text fill="black" font-size="20" x="421.5" y="2300.0">C_startDate</text><rect fill="none" height="50" stroke="black" width="150" x="550" y="2275.0" /><text fill="black" font-size="20" x="574.5" y="2300.0">C_endDate</text><rect fill="none" height="50" stroke="black" width="150" x="700" y="2275.0" /><text fill="black" font-size="20" x="738.5" y="2300.0">C_place</text><text fill="black" font-size="20" x="100" y="2425.0">Register</text><rect fill="none" height="50" stroke="black" width="150" x="100" y="2450.0" /><text fill="black" font-size="20" x="137.0" y="2475.0">C_name</text><line stroke="black" stroke-width="2" x1="137.0" x2="213.0" y1="2488.5" y2="2488.5" /><rect fill="none" height="50" stroke="black" width="150" x="250" y="2450.0" /><text fill="black" font-size="20" x="305.5" y="2475.0">T_id</text><line stroke="black" stroke-width="2" x1="305.5" x2="344.5" y1="2488.5" y2="2488.5" /><text fill="black" font-size="20" x="100" y="2600.0">Building</text><rect fill="none" height="50" stroke="black" width="150" x="100" y="2625.0" /><text fill="black" font-size="20" x="155.0" y="2650.0">B_id</text><line stroke="black" stroke-width="2" x1="155.0" x2="195.0" y1="2663.5" y2="2663.5" /><rect fill="none" height="50" stroke="black" width="150" x="250" y="2625.0" /><text fill="black" font-size="20" x="294.0" y="2650.0">B_type</text><rect fill="none" height="50" stroke="black" width="150" x="400" y="2625.0" /><text fill="black" font-size="20" x="428.5" y="2650.0">B_location</text><text fill="black" font-size="20" x="100" y="2775.0">TechnicalTeam</text><rect fill="none" height="50" stroke="black" width="150" x="100" y="2800.0" /><text fill="black" font-size="20" x="151.0" y="2825.0">Te_id</text><line stroke="black" stroke-width="2" x1="151.0" x2="199.0" y1="2838.5" y2="2838.5" /><rect fill="none" height="50" stroke="black" width="150" x="250" y="2800.0" /><text fill="black" font-size="20" x="284.0" y="2825.0">Te_name</text><rect fill="none" height="50" stroke="black" width="150" x="400" y="2800.0" /><text fill="black" font-size="20" x="431.0" y="2825.0">Te_phone</text><rect fill="none" height="50" stroke="black" width="150" x="550" y="2800.0" /><text fill="black" font-size="20" x="593.5" y="2825.0">Te_ssn</text><rect fill="none" height="50" stroke="black" width="150" x="700" y="2800.0" /><text fill="black" font-size="20" x="727.5" y="2825.0">Te_gender</text><rect fill="none" height="50" stroke="black" width="150" x="850" y="2800.0" /><text fill="black" font-size="20" x="882.0" y="2825.0">Te_salary</text><rect fill="none" height="50" stroke="black" width="170" x="1000" y="2800.0" /><text fill="black" font-size="20" x="1020.0" y="2825.0">Te_experiance</text><rect fill="none" height="50" stroke="black" width="150" x="1170" y="2800.0" /><text fill="black" font-size="20" x="1214.0" y="2825.0">Te_city</text><rect fill="none" height="50" stroke="black" width="150" x="1320" y="2800.0" /><text fill="black" font-size="20" x="1353.5" y="2825.0">Te_street</text><rect fill="none" height="50" stroke="black" width="150" x="1470" y="2800.0" /><text fill="black" font-size="20" x="1512.0" y="2825.0">Te_age</text><text fill="black" font-size="20" x="100" y="2950.0">Family</text><rect fill="none" height="50" stroke="black" width="150" x="100" y="2975.0" /><text fill="black" font-size="20" x="150.0" y="3000.0">Fa_id</text><line stroke="black" stroke-width="2" x1="150.0" x2="200.0" y1="3013.5" y2="3013.5" /><rect fill="none" height="50" stroke="black" width="198" x="250" y="2975.0" /><text fill="black" font-size="20" x="270.0" y="3000.0">Fa_numOfPerson</text><polyline fill="none" marker-end="url(#id23)" points="314.0,225.0 314.0,308.5 147.0,308.5 147.0,350.0" stroke="black" stroke-width="2" /><polyline fill="none" marker-start="url(#id24)" points="208.0,400.0 208.0,450.5 27,450.5 27,2375.5 344.0,2375.5 344.0,2450.0" stroke="black" stroke-width="2" /><polyline fill="none" marker-start="url(#id25)" points="185.0,400.0 185.0,434.5 46,434.5 46,609.5 200.0,609.5 200.0,700.0" stroke="black" stroke-width="2" /><polyline fill="none" marker-end="url(#id26)" points="344.0,400.0 344.0,455.5 183.0,455.5 183.0,525.0" stroke="black" stroke-width="2" /><polyline fill="none" marker-end="url(#id27)" points="486.0,400.0 486.0,467.5 13,467.5 13,817.5 183.0,817.5 183.0,875.0" stroke="black" stroke-width="2" /><polyline fill="none" marker-end="url(#id28)" points="655.0,400.0 655.0,449.5 48,449.5 48,2724.5 171.0,2724.5 171.0,2800.0" stroke="black" stroke-width="2" /><polyline fill="none" marker-start="url(#id29)" points="209.0,575.0 209.0,639.5 68,639.5 68,989.5 342.0,989.5 342.0,1050.0" stroke="black" stroke-width="2" /><polyline fill="none" marker-start="url(#id30)" points="195.0,575.0 195.0,656.5 333.0,656.5 333.0,700.0" stroke="black" stroke-width="2" /><polyline fill="none" marker-end="url(#id31)" points="335.0,575.0 335.0,652.5 29,652.5 29,1177.5 196.0,1177.5 196.0,1225.0" stroke="black" stroke-width="2" /><polyline fill="none" marker-start="url(#id32)" points="143.0,925.0 143.0,969.5 157.0,969.5 157.0,1050.0" stroke="black" stroke-width="2" /><polyline fill="none" marker-start="url(#id33)" points="163.0,1275.0 163.0,1328.5 61,1328.5 61,1503.5 468.0,1503.5 468.0,1575.0" stroke="black" stroke-width="2" /><polyline fill="none" marker-start="url(#id34)" points="161.0,1275.0 161.0,1338.5 52,1338.5 52,1863.5 341.0,1863.5 341.0,1925.0" stroke="black" stroke-width="2" /><polyline fill="none" marker-start="url(#id35)" points="162.0,1275.0 162.0,1324.5 289.0,1324.5 289.0,1400.0" stroke="black" stroke-width="2" /><polyline fill="none" marker-start="url(#id36)" points="203.0,1275.0 203.0,1314.5 70,1314.5 70,1139.5 295.0,1139.5 295.0,1225.0" stroke="black" stroke-width="2" /><polyline fill="none" marker-start="url(#id37)" points="142.0,1450.0 142.0,1484.5 47,1484.5 47,2009.5 172.0,2009.5 172.0,2100.0" stroke="black" stroke-width="2" /><polyline fill="none" marker-start="url(#id38)" points="210.0,1625.0 210.0,1659.5 40,1659.5 40,2009.5 341.0,2009.5 341.0,2100.0" stroke="black" stroke-width="2" /><polyline fill="none" marker-end="url(#id39)" points="288.0,1625.0 288.0,1660.5 58,1660.5 58,2885.5 192.0,2885.5 192.0,2975.0" stroke="black" stroke-width="2" /><polyline fill="none" marker-start="url(#id40)" points="169.0,1800.0 169.0,1880.5 201.0,1880.5 201.0,1925.0" stroke="black" stroke-width="2" /><polyline fill="none" marker-end="url(#id41)" points="331.0,1800.0 331.0,1878.5 85,1878.5 85,2578.5 171.0,2578.5 171.0,2625.0" stroke="black" stroke-width="2" /><polyline fill="none" marker-start="url(#id42)" points="200.0,2325.0 200.0,2403.5 187.0,2403.5 187.0,2450.0" stroke="black" stroke-width="2" /></svg>